<svg xmlns="http://www.w3.org/2000/svg" width="151" height="45" viewBox="0 0 151 45">
    <defs>
        <linearGradient id="a" x1="61.286%" x2="26.062%" y1="4.677%" y2="71.806%">
            <stop offset="0%" stop-color="#00A1FF"/>
            <stop offset="26.01%" stop-color="#00BEFF"/>
            <stop offset="51.22%" stop-color="#00D2FF"/>
            <stop offset="76.04%" stop-color="#00DFFF"/>
            <stop offset="100%" stop-color="#00E3FF"/>
        </linearGradient>
        <linearGradient id="b" x1="107.998%" x2="-130.395%" y1="49.535%" y2="49.535%">
            <stop offset="0%" stop-color="#FFE000"/>
            <stop offset="40.87%" stop-color="#FFBD00"/>
            <stop offset="77.54%" stop-color="#FFA500"/>
            <stop offset="100%" stop-color="#FF9C00"/>
        </linearGradient>
        <linearGradient id="c" x1="86.472%" x2="-50.626%" y1="31.129%" y2="134.9%">
            <stop offset="0%" stop-color="#FF3A44"/>
            <stop offset="100%" stop-color="#C31162"/>
        </linearGradient>
        <linearGradient id="d" x1="-19.128%" x2="42.092%" y1="-10.45%" y2="35.395%">
            <stop offset="0%" stop-color="#32A071"/>
            <stop offset="6.85%" stop-color="#2DA771"/>
            <stop offset="47.62%" stop-color="#15CF74"/>
            <stop offset="80.09%" stop-color="#06E775"/>
            <stop offset="100%" stop-color="#00F076"/>
        </linearGradient>
        <linearGradient id="e" x1="60.157%" x2="33.558%" y1="74.057%" y2="-12.999%">
            <stop offset="0%" stop-color="#D6FFA1"/>
            <stop offset="32.64%" stop-color="#93E2A7"/>
            <stop offset="100%" stop-color="#00A3B5"/>
        </linearGradient>
        <linearGradient id="f" x1="-32.172%" x2="80.167%" y1="-59.901%" y2="89.132%">
            <stop offset="0%" stop-color="#FF177B"/>
            <stop offset="67.21%" stop-color="#FFA976"/>
            <stop offset="100%" stop-color="#FFEC73"/>
        </linearGradient>
        <linearGradient id="g" x1="50.233%" x2="35.754%" y1="74.663%" y2="-29.336%">
            <stop offset="0%" stop-color="#63FFD4"/>
            <stop offset="48.54%" stop-color="#32A0BA"/>
            <stop offset="83.49%" stop-color="#1262A9"/>
            <stop offset="100%" stop-color="#064AA2"/>
        </linearGradient>
        <linearGradient id="h" x1="119.508%" x2="-23.112%" y1="41.608%" y2="56.39%">
            <stop offset="0%" stop-color="#FF4521"/>
            <stop offset="34.11%" stop-color="#D43E65"/>
            <stop offset="79.35%" stop-color="#9F36B9"/>
            <stop offset="100%" stop-color="#8A33DB"/>
        </linearGradient>
    </defs>
    <g fill="none" fill-rule="evenodd">
        <path fill="#000" d="M0 6.022A6.013 6.013 0 0 1 6.013 0h138.974A6.018 6.018 0 0 1 151 6.022v32.956A6.013 6.013 0 0 1 144.987 45H6.013A6.018 6.018 0 0 1 0 38.978V6.022z"/>
        <path fill="#FFF" d="M120.876 34.688h2.119V20.623h-2.119v14.063zm19.082-8.998l-2.43 6.097h-.073l-2.519-6.097h-2.283l3.78 8.522-2.154 4.74h2.21l5.823-13.262h-2.354zm-12.016 7.4c-.693 0-1.662-.343-1.662-1.195 0-1.084 1.206-1.5 2.247-1.5.931 0 1.37.199 1.935.47-.164 1.303-1.297 2.225-2.52 2.225zm.256-7.707c-1.534 0-3.122.669-3.78 2.153l1.88.777c.402-.777 1.152-1.031 1.936-1.031 1.096 0 2.21.651 2.228 1.81v.144c-.384-.217-1.205-.542-2.21-.542-2.026 0-4.09 1.103-4.09 3.165 0 1.882 1.662 3.095 3.525 3.095 1.424 0 2.21-.633 2.702-1.376h.073v1.086h2.046v-5.392c0-2.497-1.882-3.89-4.31-3.89zm-13.093 2.019h-3.012v-4.82h3.012c1.584 0 2.484 1.299 2.484 2.41 0 1.09-.9 2.41-2.484 2.41zm-.054-6.778h-5.076v14.064h2.118V29.36h2.958c2.348 0 4.656-1.686 4.656-4.369s-2.308-4.367-4.656-4.367zM87.37 33.092c-1.463 0-2.689-1.214-2.689-2.88 0-1.686 1.226-2.92 2.689-2.92 1.445 0 2.58 1.234 2.58 2.92 0 1.666-1.135 2.88-2.58 2.88zm2.433-6.615h-.074c-.476-.561-1.39-1.068-2.542-1.068-2.415 0-4.627 2.101-4.627 4.802 0 2.682 2.212 4.767 4.627 4.767 1.153 0 2.066-.508 2.542-1.088h.074v.69c0 1.83-.988 2.809-2.58 2.809-1.298 0-2.103-.925-2.431-1.705l-1.849.762c.53 1.269 1.94 2.827 4.28 2.827 2.488 0 4.592-1.45 4.592-4.984v-8.591h-2.012v.78zm3.475 8.21H95.4V20.624h-2.122v14.065zm5.25-4.639c-.056-1.848 1.444-2.791 2.524-2.791.841 0 1.554.416 1.793 1.015l-4.317 1.776zm6.584-1.595c-.402-1.069-1.628-3.044-4.134-3.044-2.487 0-4.554 1.938-4.554 4.784 0 2.682 2.048 4.785 4.793 4.785 2.212 0 3.493-1.341 4.023-2.12l-1.646-1.089c-.548.798-1.299 1.323-2.377 1.323-1.08 0-1.849-.49-2.342-1.449l6.457-2.647-.22-.543zm-51.44-1.576v2.03h4.902c-.146 1.141-.531 1.975-1.116 2.554-.714.708-1.829 1.487-3.786 1.487-3.018 0-5.377-2.41-5.377-5.4 0-2.992 2.36-5.402 5.377-5.402 1.628 0 2.817.635 3.694 1.45l1.446-1.432c-1.225-1.16-2.853-2.049-5.14-2.049-4.134 0-7.61 3.336-7.61 7.432s3.476 7.43 7.61 7.43c2.23 0 3.915-.725 5.232-2.084 1.353-1.34 1.773-3.225 1.773-4.749 0-.47-.036-.905-.109-1.267h-6.896zm12.578 6.215c-1.463 0-2.726-1.196-2.726-2.899 0-1.722 1.263-2.9 2.726-2.9 1.464 0 2.725 1.178 2.725 2.9 0 1.703-1.261 2.9-2.725 2.9zm0-7.683c-2.67 0-4.847 2.011-4.847 4.784 0 2.755 2.177 4.785 4.847 4.785 2.67 0 4.847-2.03 4.847-4.785 0-2.773-2.176-4.784-4.847-4.784zm10.574 7.683c-1.464 0-2.725-1.196-2.725-2.899 0-1.722 1.261-2.9 2.725-2.9 1.463 0 2.725 1.178 2.725 2.9 0 1.703-1.262 2.9-2.725 2.9zm0-7.683c-2.67 0-4.847 2.011-4.847 4.784 0 2.755 2.176 4.785 4.847 4.785 2.67 0 4.847-2.03 4.847-4.785 0-2.773-2.177-4.784-4.847-4.784z"/>
        <g fill="#FFF">
            <path d="M89.885 8.406v4.19l.027.978-3.205-5.168H85.45v7.187h1.116v-4.452l-.027-.977 3.36 5.429h1.105V8.406zM83.297 12c0 .773-.247 1.417-.735 1.915a2.423 2.423 0 0 1-1.794.747 2.427 2.427 0 0 1-1.794-.747c-.487-.498-.735-1.142-.735-1.916 0-.773.248-1.417.735-1.915a2.426 2.426 0 0 1 1.794-.746c.705 0 1.308.25 1.794.746.488.498.735 1.142.735 1.915M80.768 8.25c-1.038 0-1.916.367-2.614 1.09-.696.721-1.05 1.615-1.05 2.66 0 1.044.354 1.939 1.05 2.659.697.723 1.576 1.088 2.614 1.088 1.037 0 1.918-.365 2.614-1.088.698-.721 1.05-1.616 1.05-2.66 0-1.037-.353-1.93-1.054-2.655-.701-.726-1.58-1.094-2.61-1.094M69.455 9.492h1.93v6.1H72.5v-6.1h1.929V8.406h-4.975zM67.449 15.592h1.117V8.405H67.45zM59.269 9.492h1.929v6.1h1.118v-6.1h1.929V8.406h-4.976zM54.311 15.593h4.263v-1.087h-3.145v-1.973h2.836v-1.067H55.43V9.493h3.145V8.405H54.31zM53.2 11.64h-3.557v1.068h2.495c-.064.511-.242.918-.533 1.212-.49.492-1.111.742-1.847.742-.693 0-1.3-.249-1.806-.74-.505-.49-.76-1.137-.76-1.922 0-.786.255-1.433.76-1.923a2.517 2.517 0 0 1 1.806-.74c.775 0 1.364.256 1.803.784l.081.097.77-.777-.068-.08c-.28-.336-.657-.608-1.123-.81a3.674 3.674 0 0 0-1.463-.301c-1.023 0-1.906.363-2.622 1.078-.717.715-1.081 1.614-1.081 2.672 0 1.057.364 1.956 1.08 2.67.717.715 1.599 1.078 2.623 1.078 1.07 0 1.951-.358 2.619-1.063.591-.597.892-1.405.892-2.403 0-.177-.018-.36-.05-.545l-.018-.096z"/>
        </g>
        <path fill="url(#a)" d="M.526.448C.196.793 0 1.33 0 2.028v24.88c0 .697.195 1.234.526 1.58l.083.081 14.066-13.936v-.33L.61.366.526.448z" transform="translate(10.57 9.75)"/>
        <path fill="url(#b)" d="M14.675 14.303v.33l4.688 4.647.108-.06 5.554-3.128c1.587-.892 1.587-2.355 0-3.248l-5.554-3.127-.107-.06-4.689 4.646z" transform="translate(10.57 9.75)"/>
        <path fill="url(#c)" d="M.526 28.488c.522.55 1.386.617 2.359.07l16.586-9.337-4.796-4.752-14.15 14.02z" transform="translate(10.57 9.75)"/>
        <path fill="url(#d)" d="M.526.448l14.15 14.02 4.795-4.753L2.885.378C2.428.12 1.995 0 1.612 0 1.177 0 .802.156.526.448" transform="translate(10.57 9.75)"/>
        <g>
            <path d="M25.512 24.01l4.371-4.408-4.371 4.407-14.094-14 14.094 14-14.094 14 14.094-14 4.436 4.408z"/>
            <path fill="url(#e)" d="M19.313 9.852L2.153.519C1.696.259 1.24.194.848.324L14.942 14.26l4.371-4.407z" transform="translate(10.57 9.75)"/>
            <path fill="url(#f)" d="M19.378 18.667l5.873-3.176c1.174-.648 1.174-1.685 0-2.334l-5.873-3.24-4.436 4.342 4.436 4.408z" transform="translate(10.57 9.75)"/>
            <path fill="url(#g)" d="M.848.26C.326.453 0 .971 0 1.75v25.019c0 .777.326 1.296.848 1.49l14.094-14L.848.26z" transform="translate(10.57 9.75)"/>
            <path fill="url(#h)" d="M.848 28.26c.392.129.848.064 1.305-.195l17.16-9.398-4.371-4.408-14.094 14z" transform="translate(10.57 9.75)"/>
        </g>
    </g>
</svg>
