<svg xmlns="http://www.w3.org/2000/svg" width="151" height="45" viewBox="0 0 151 45">
    <g fill="none" fill-rule="evenodd">
        <rect width="151" height="45" fill="#000" rx="6"/>
        <g fill="#FFF">
            <path d="M33.45 22.257c-.034-3.626 2.995-5.39 3.134-5.472-1.716-2.478-4.375-2.817-5.309-2.844-2.233-.233-4.4 1.324-5.537 1.324-1.16 0-2.912-1.302-4.8-1.263-2.43.037-4.702 1.43-5.949 3.595-2.572 4.414-.654 10.9 1.811 14.467 1.233 1.747 2.674 3.697 4.56 3.629 1.844-.075 2.533-1.166 4.76-1.166 2.206 0 2.853 1.166 4.776 1.122 1.98-.032 3.226-1.755 4.416-3.518 1.425-2.002 1.997-3.975 2.02-4.076-.047-.016-3.845-1.452-3.883-5.798zM29.816 11.594c.993-1.23 1.671-2.902 1.483-4.6-1.436.063-3.232.984-4.266 2.187-.916 1.06-1.733 2.797-1.522 4.43 1.613.12 3.27-.806 4.305-2.017z"/>
        </g>
        <g fill="#FFF">
            <path d="M137.928 29.534c0 .43-.028.792-.088 1.087h-7.262c.029 1.067.38 1.883 1.054 2.445.612.503 1.403.755 2.375.755 1.075 0 2.056-.17 2.938-.51l.38 1.664c-1.032.446-2.249.667-3.653.667-1.69 0-3.015-.493-3.98-1.477-.963-.984-1.446-2.306-1.446-3.964 0-1.628.449-2.984 1.347-4.065.94-1.154 2.21-1.731 3.809-1.731 1.57 0 2.759.577 3.566 1.731.639.917.96 2.05.96 3.397zm-2.308-.623c.016-.71-.142-1.325-.47-1.844-.419-.667-1.062-1-1.929-1-.791 0-1.435.325-1.926.978-.403.519-.643 1.14-.717 1.865h5.042v.001zM127.103 26.756a4.24 4.24 0 0 0-.763-.067c-.851 0-1.51.319-1.973.957-.403.562-.605 1.273-.605 2.132v5.664h-2.42l.023-7.396c0-1.244-.03-2.377-.09-3.398h2.108l.088 2.065h.067c.256-.71.659-1.281 1.21-1.71a2.944 2.944 0 0 1 1.75-.578c.224 0 .426.016.605.044v2.287zM119.236 29.955c0 1.66-.48 3.022-1.435 4.088-1.003 1.096-2.333 1.643-3.992 1.643-1.599 0-2.871-.525-3.82-1.576-.95-1.05-1.424-2.377-1.424-3.976 0-1.673.488-3.043 1.468-4.108.977-1.067 2.297-1.6 3.955-1.6 1.599 0 2.885.525 3.856 1.577.928 1.02 1.392 2.338 1.392 3.952zm-2.512.078c0-.996-.214-1.85-.65-2.562-.507-.861-1.232-1.291-2.172-1.291-.973 0-1.712.43-2.22 1.291-.434.714-.649 1.581-.649 2.607 0 .996.215 1.85.65 2.56.523.862 1.254 1.292 2.197 1.292.925 0 1.65-.439 2.173-1.314.447-.726.671-1.588.671-2.583zM107.198 26.447h-2.668v5.24c0 1.334.47 2 1.412 2 .433 0 .792-.037 1.076-.111l.067 1.821c-.477.177-1.105.266-1.883.266-.956 0-1.703-.29-2.242-.867-.537-.578-.807-1.548-.807-2.91v-5.442h-1.59v-1.8h1.59v-1.976l2.377-.711v2.687h2.668v1.803zM99.195 31.243c0 1.274-.446 2.31-1.342 3.11-.984.874-2.354 1.31-4.115 1.31-1.626 0-2.93-.31-3.916-.932l.561-2a6.68 6.68 0 0 0 3.5.957c.91 0 1.62-.205 2.13-.612.508-.407.76-.954.76-1.636 0-.607-.208-1.119-.627-1.534-.417-.415-1.113-.801-2.084-1.158-2.646-.977-3.967-2.41-3.967-4.293 0-1.23.463-2.24 1.39-3.025.925-.786 2.158-1.179 3.7-1.179 1.374 0 2.516.237 3.428.711l-.605 1.955c-.852-.459-1.814-.688-2.892-.688-.851 0-1.517.208-1.993.622a1.77 1.77 0 0 0-.605 1.356c0 .591.23 1.08.693 1.465.403.356 1.135.74 2.198 1.156 1.3.518 2.255 1.125 2.869 1.82.612.693.917 1.56.917 2.595zM85.186 29.912c0 1.836-.5 3.287-1.503 4.352-.896.948-2.01 1.422-3.34 1.422-1.434 0-2.465-.51-3.092-1.532h-.045v5.687h-2.42V28.2c0-1.155-.031-2.34-.09-3.555h2.128l.135 1.712h.046c.806-1.29 2.03-1.933 3.676-1.933 1.284 0 2.357.503 3.217 1.51.858 1.008 1.288 2.333 1.288 3.977zm-2.466.087c0-1.05-.24-1.917-.719-2.598-.523-.711-1.224-1.067-2.106-1.067-.598 0-1.14.198-1.625.588a2.724 2.724 0 0 0-.952 1.545c-.074.297-.112.54-.112.731v1.8c0 .785.243 1.448.726 1.99.486.54 1.118.81 1.896.81.912 0 1.622-.348 2.129-1.044.509-.696.763-1.614.763-2.755zM72.656 29.912c0 1.836-.501 3.287-1.502 4.352-.897.948-2.011 1.422-3.34 1.422-1.436 0-2.466-.51-3.094-1.532h-.046v5.687h-2.42V28.2c0-1.155-.03-2.34-.09-3.555h2.129l.135 1.712h.045c.808-1.29 2.033-1.933 3.677-1.933 1.285 0 2.358.503 3.216 1.51.86 1.008 1.29 2.333 1.29 3.977zm-2.466.087c0-1.05-.239-1.917-.718-2.598-.523-.711-1.226-1.067-2.107-1.067-.597 0-1.14.198-1.625.588a2.725 2.725 0 0 0-.952 1.545c-.075.297-.112.54-.112.731v1.8c0 .785.242 1.448.728 1.99.486.54 1.118.81 1.894.81.912 0 1.621-.348 2.129-1.044.508-.696.763-1.614.763-2.755zM60.148 35.442H57.57l-1.413-4.398h-4.909l-1.345 4.398h-2.51l4.864-14.972h3.004l4.887 14.972zm-4.416-6.243l-1.278-3.909c-.135-.4-.388-1.34-.761-2.82h-.046c-.148.636-.388 1.577-.717 2.82l-1.255 3.91h4.057z"/>
        </g>
        <g fill="#FFF">
            <path d="M136.85 12.21c0 .211-.015.389-.043.534h-3.569c.016.524.187.924.517 1.2.302.248.691.372 1.168.372.528 0 1.01-.084 1.443-.251l.186.819c-.507.218-1.104.327-1.796.327-.829 0-1.481-.242-1.954-.726-.474-.483-.71-1.132-.71-1.947 0-.8.22-1.466.662-1.997.46-.567 1.084-.85 1.87-.85.77 0 1.355.283 1.75.85.32.45.477 1.007.477 1.669zm-1.134-.305c.009-.35-.07-.652-.23-.906-.208-.327-.522-.492-.948-.492-.388 0-.705.16-.947.48-.197.256-.314.561-.353.918h2.478zM130.354 15.112h-1.191v-3.015c0-.95-.36-1.426-1.078-1.426-.552 0-.928.275-1.135.826a1.469 1.469 0 0 0-.056.425v3.189h-1.188V7.375h1.188v3.197h.023c.375-.582.912-.872 1.608-.872.492 0 .9.16 1.223.48.403.4.606.994.606 1.779v3.153zM124.055 10.692h-1.31v2.576c0 .655.233.982.693.982.214 0 .391-.018.53-.055l.031.895c-.235.087-.544.131-.924.131-.47 0-.835-.142-1.1-.425-.266-.283-.397-.76-.397-1.43v-2.674h-.783v-.883h.783v-.972l1.166-.349v1.32h1.31v.884zM116.048 15.112h-1.189v-3.037c0-.936-.359-1.404-1.08-1.404-.353 0-.638.128-.858.386-.22.257-.33.56-.33.909v3.145H111.4v-3.787c0-.465-.014-.97-.042-1.517h1.044l.056.829h.033c.14-.258.346-.47.616-.64a2.029 2.029 0 0 1 1.08-.298c.498 0 .914.16 1.244.48.412.393.617.979.617 1.757v3.177zM109.65 12.417c0 .815-.235 1.484-.705 2.008-.492.539-1.144.807-1.96.807-.785 0-1.41-.257-1.878-.775-.466-.516-.698-1.167-.698-1.953 0-.82.24-1.495.72-2.018.482-.523 1.129-.785 1.945-.785.785 0 1.417.257 1.894.774.454.502.682 1.15.682 1.942zm-1.233.038c0-.49-.106-.91-.319-1.259-.25-.423-.605-.634-1.068-.634-.477 0-.84.211-1.091.634-.213.35-.319.776-.319 1.28 0 .49.107.91.319 1.26.258.422.616.634 1.08.634.454 0 .811-.215 1.068-.646.22-.357.33-.78.33-1.27zM99.475 15.112h-1.056l-.056-.851h-.033c-.337.648-.911.972-1.719.972-.644 0-1.181-.251-1.607-.753-.426-.502-.638-1.153-.638-1.953 0-.858.23-1.554.693-2.085.449-.495.998-.742 1.652-.742.719 0 1.222.24 1.508.72h.023V7.376h1.19v6.307c0 .517.014.993.043 1.43zm-1.233-2.236v-.885a1.72 1.72 0 0 0-.033-.37 1.34 1.34 0 0 0-.43-.715 1.176 1.176 0 0 0-.796-.29c-.444 0-.792.175-1.047.525-.253.35-.382.796-.382 1.342 0 .524.122.95.366 1.277.258.349.605.523 1.04.523.39 0 .703-.145.94-.437.23-.268.342-.592.342-.97zM92.714 15.112h-1.068l-.089-.61h-.033c-.365.486-.887.73-1.563.73-.505 0-.914-.16-1.222-.48a1.499 1.499 0 0 1-.419-1.08c0-.648.273-1.142.821-1.484.547-.342 1.317-.51 2.308-.502v-.099c0-.698-.37-1.047-1.111-1.047-.528 0-.994.132-1.396.393l-.241-.774c.497-.305 1.111-.458 1.835-.458 1.4 0 2.1.731 2.1 2.194v1.953c0 .53.027.951.078 1.264zm-1.235-1.822v-.818c-1.313-.023-1.969.334-1.969 1.069 0 .276.075.483.228.622a.837.837 0 0 0 .582.207c.26 0 .505-.083.727-.246a1.004 1.004 0 0 0 .432-.834zM86.956 12.417c0 .815-.235 1.484-.705 2.008-.493.539-1.147.807-1.961.807-.787 0-1.412-.257-1.878-.775-.465-.516-.698-1.167-.698-1.953 0-.82.24-1.495.721-2.018.481-.523 1.128-.785 1.942-.785.787 0 1.417.257 1.896.774.455.502.683 1.15.683 1.942zm-1.235.038c0-.49-.107-.91-.32-1.259-.248-.423-.605-.634-1.066-.634-.479 0-.842.211-1.09.634-.214.35-.32.776-.32 1.28 0 .49.107.91.32 1.26.257.422.616.634 1.08.634.453 0 .809-.215 1.065-.646.222-.357.33-.78.33-1.27zM79.95 15.112h-1.188V7.375h1.189zM76.67 15.112h-1.19v-3.037c0-.936-.359-1.404-1.078-1.404-.353 0-.638.128-.86.386-.219.257-.33.56-.33.909v3.145h-1.19v-3.787c0-.465-.015-.97-.043-1.517h1.046l.055.829h.033a1.71 1.71 0 0 1 .617-.64 2.025 2.025 0 0 1 1.078-.298c.5 0 .915.16 1.245.48.411.393.617.979.617 1.757v3.177zM70.502 9.809l-1.675 5.303h-1.09l-.693-2.303a17.107 17.107 0 0 1-.43-1.713h-.022a12.45 12.45 0 0 1-.43 1.713l-.737 2.303h-1.103L62.748 9.81h1.223l.605 2.521c.146.596.266 1.164.363 1.702h.021c.089-.443.235-1.008.442-1.69l.76-2.532h.97l.727 2.477c.176.604.319 1.186.429 1.746h.033c.08-.545.202-1.127.363-1.746l.65-2.477h1.168v-.001zM61.583 12.417c0 .815-.235 1.484-.705 2.008-.493.539-1.146.807-1.96.807-.786 0-1.412-.257-1.878-.775-.466-.516-.699-1.167-.699-1.953 0-.82.24-1.495.721-2.018.482-.523 1.129-.785 1.944-.785.785 0 1.417.257 1.895.774.454.502.682 1.15.682 1.942zm-1.234.038c0-.49-.107-.91-.32-1.259-.249-.423-.604-.634-1.066-.634-.478 0-.842.211-1.091.634-.214.35-.32.776-.32 1.28 0 .49.107.91.32 1.26.257.422.616.634 1.08.634.453 0 .81-.215 1.067-.646.22-.357.33-.78.33-1.27zM54.931 11.26c0 1.324-.4 2.321-1.2 2.99-.742.618-1.796.927-3.16.927-.677 0-1.256-.029-1.74-.087V7.855a12.958 12.958 0 0 1 2.048-.153c1.3 0 2.28.28 2.94.84.741.634 1.112 1.54 1.112 2.718zm-1.254.033c0-.859-.23-1.517-.688-1.976-.459-.458-1.129-.687-2.01-.687a5.08 5.08 0 0 0-.959.076v5.5c.146.023.414.033.804.033.91 0 1.613-.25 2.108-.753.495-.501.745-1.233.745-2.193z"/>
        </g>
    </g>
</svg>
